<svg width="21" height="20" viewBox="0 0 21 20" fill="none" xmlns="http://www.w3.org/2000/svg">
<path d="M1.32843 4.49988C1.32843 2.29074 3.11929 0.499878 5.32843 0.499878H8.82843C9.10457 0.499878 9.32843 0.723735 9.32843 0.999878V7.99988C9.32843 8.27602 9.10457 8.49988 8.82843 8.49988H1.82843C1.55229 8.49988 1.32843 8.27602 1.32843 7.99988V4.49988Z" stroke="#FFC121"/>
<path d="M1.32843 11.9999C1.32843 11.7237 1.55229 11.4999 1.82843 11.4999H8.82843C9.10457 11.4999 9.32843 11.7237 9.32843 11.9999V18.9999C9.32843 19.276 9.10457 19.4999 8.82843 19.4999H5.32843C3.11929 19.4999 1.32843 17.709 1.32843 15.4999V11.9999Z" stroke="#FFC121"/>
<path d="M12.3284 0.999878C12.3284 0.723736 12.5523 0.499878 12.8284 0.499878H16.3284C18.5376 0.499878 20.3284 2.29074 20.3284 4.49988V7.99988C20.3284 8.27602 20.1046 8.49988 19.8284 8.49988H12.8284C12.5523 8.49988 12.3284 8.27602 12.3284 7.99988V0.999878Z" stroke="#FFC121"/>
<path d="M12.3284 11.9999C12.3284 11.7237 12.5523 11.4999 12.8284 11.4999H19.8284C20.1046 11.4999 20.3284 11.7237 20.3284 11.9999V15.4999C20.3284 17.709 18.5376 19.4999 16.3284 19.4999H12.8284C12.5523 19.4999 12.3284 19.276 12.3284 18.9999V11.9999Z" stroke="#FFC121"/>
</svg>
