<svg width="29" height="22" viewBox="0 0 29 22" fill="none" xmlns="http://www.w3.org/2000/svg">
<path d="M23.8284 1.09998H4.82843C2.61929 1.09998 0.82843 2.89084 0.82843 5.09998V11.0457C0.82843 13.2548 2.61929 15.0457 4.82843 15.0457H7.70556C7.83682 15.0457 7.96282 15.0973 8.05636 15.1894L13.6989 20.745C14.015 21.0563 14.5497 20.8323 14.5497 20.3888V15.5457C14.5497 15.2695 14.7736 15.0457 15.0497 15.0457H23.8284C26.0376 15.0457 27.8284 13.2548 27.8284 11.0457V5.09998C27.8284 2.89084 26.0376 1.09998 23.8284 1.09998Z" stroke="#FFC121"/>
<path d="M4.82843 6.09998H14.8284" stroke="#FFC121" stroke-linecap="round"/>
<path d="M4.82843 9.09998H21.8284" stroke="#FFC121" stroke-linecap="round"/>
</svg>
